<svg xmlns="http://www.w3.org/2000/svg" viewBox="0 0 512 512" width="32" height="32">
<defs><linearGradient id="g" x1="0" y1="0" x2="0" y2="1">
  <stop offset="0" stop-color="#1B2A5C"/><stop offset="1" stop-color="#0A0F24"/>
</linearGradient></defs>
<rect width="512" height="512" rx="112" fill="url(#g)"/><g fill="#fff">
  <circle cx="70" cy="80" r="3" opacity=".7"/><circle cx="420" cy="70" r="4" opacity=".8"/>
  <circle cx="460" cy="190" r="2.5" opacity=".5"/><circle cx="50" cy="300" r="2.5" opacity=".45"/>
  <circle cx="110" cy="440" r="3" opacity=".5"/><circle cx="440" cy="430" r="2.5" opacity=".6"/>
</g>
<g transform="translate(46 40) scale(3.5)">
  <line x1="60" y1="22" x2="60" y2="11" stroke="#AAB8E0" stroke-width="4" stroke-linecap="round"/>
  <circle cx="60" cy="9" r="10" fill="#FF8A6B" opacity="0.25"/>
  <circle cx="60" cy="9" r="6" fill="#FF8A6B"/>
  <rect x="5" y="50" width="11" height="26" rx="5.5" fill="#AAB8E0"/>
  <rect x="104" y="50" width="11" height="26" rx="5.5" fill="#AAB8E0"/>
  <rect x="13" y="21" width="94" height="82" rx="29" fill="#DCE3F7"/>
  <rect x="24" y="33" width="72" height="57" rx="19" fill="#070B1D"/>
  <path d="M41 61 q6 -9 12 0 M67 61 q6 -9 12 0" stroke="#6EF2C0" stroke-width="5" fill="none" stroke-linecap="round"/>
  <path d="M50 71 q10 10 20 0" stroke="#6EF2C0" stroke-width="4" fill="none" stroke-linecap="round"/>
  <circle cx="35" cy="71" r="4.5" fill="#FF8FA3" opacity="0.75"/>
  <circle cx="85" cy="71" r="4.5" fill="#FF8FA3" opacity="0.75"/>
</g></svg>